HIERARCHY
ROOT Hips
{
  OFFSET 5.80788e-005 67.184 3.4734
  CHANNELS 6 Xposition Yposition Zposition Zrotation Xrotation Yrotation
  JOINT Chest
  {
    OFFSET 0 8.7983 -4.7612
    CHANNELS 3 Zrotation Xrotation Yrotation
    JOINT Chest2
    {
      OFFSET 0 8.0291 0.4195
      CHANNELS 3 Zrotation Xrotation Yrotation
      JOINT Chest3
      {
        OFFSET 0 9.9351 -2.2114
        CHANNELS 3 Zrotation Xrotation Yrotation
        JOINT Neck
        {
          OFFSET 0 22.3885 -0.4656
          CHANNELS 3 Zrotation Xrotation Yrotation
          JOINT Head
          {
            OFFSET -0.0001 12.643 3.4389
            CHANNELS 3 Zrotation Xrotation Yrotation
            End Site
            {
              OFFSET 0.0001 17.6655 0.5274
            }
          }
        }
        JOINT LeftCollar
        {
          OFFSET 2.2603 21.606 7.4023
          CHANNELS 3 Zrotation Xrotation Yrotation
          JOINT LeftShoulder
          {
            OFFSET 13.5163 -1.1332 -5.0146
            CHANNELS 3 Zrotation Xrotation Yrotation
            JOINT LeftElbow
            {
              OFFSET -0.0995 -28.05 -0.2431
              CHANNELS 3 Zrotation Xrotation Yrotation
              JOINT LeftWrist
              {
                OFFSET 0.0679 -23.3996 -0.1402
                CHANNELS 3 Zrotation Xrotation Yrotation
                JOINT LeftFinger1
                {
                  OFFSET 0.7932 -9.069 2.5189
                  CHANNELS 3 Zrotation Xrotation Yrotation
                  JOINT LeftFinger11
                  {
                    OFFSET -0.8272 -3.3923 0.5977
                    CHANNELS 3 Zrotation Xrotation Yrotation
                    JOINT LeftFinger12
                    {
                      OFFSET -0.5649 -2.3158 0.4082
                      CHANNELS 3 Zrotation Xrotation Yrotation
                      End Site
                      {
                        OFFSET -0.4919 -1.6479 0.2673
                      }
                    }
                  }
                }
                JOINT LeftFinger2
                {
                  OFFSET 0.9159 -9.2044 0.2193
                  CHANNELS 3 Zrotation Xrotation Yrotation
                  JOINT LeftFinger21
                  {
                    OFFSET 0.0117 -4.1944 -0.0248
                    CHANNELS 3 Zrotation Xrotation Yrotation
                    JOINT LeftFinger22
                    {
                      OFFSET 0.0071 -2.3249 -0.0142
                      CHANNELS 3 Zrotation Xrotation Yrotation
                      End Site
                      {
                        OFFSET -0.1475 -2.0882 0.0028
                      }
                    }
                  }
                }
                JOINT LeftFinger3
                {
                  OFFSET 0.6113 -8.7231 -2.0637
                  CHANNELS 3 Zrotation Xrotation Yrotation
                  JOINT LeftFinger31
                  {
                    OFFSET -0.1927 -3.8059 -0.2383
                    CHANNELS 3 Zrotation Xrotation Yrotation
                    JOINT LeftFinger32
                    {
                      OFFSET -0.1091 -2.1688 -0.1362
                      CHANNELS 3 Zrotation Xrotation Yrotation
                      End Site
                      {
                        OFFSET -0.2358 -1.9176 -0.0906
                      }
                    }
                  }
                }
                JOINT LeftFinger4
                {
                  OFFSET -0.6151 -8.0947 -3.5641
                  CHANNELS 3 Zrotation Xrotation Yrotation
                  JOINT LeftFinger41
                  {
                    OFFSET -0.4882 -2.341 -0.6462
                    CHANNELS 3 Zrotation Xrotation Yrotation
                    JOINT LeftFinger42
                    {
                      OFFSET -0.3575 -1.7167 -0.4742
                      CHANNELS 3 Zrotation Xrotation Yrotation
                      End Site
                      {
                        OFFSET -0.4187 -1.5237 -0.3496
                      }
                    }
                  }
                }
                JOINT LeftFinger0
                {
                  OFFSET -1.42 -1.8761 1.4223
                  CHANNELS 3 Zrotation Xrotation Yrotation
                  JOINT LeftFinger01
                  {
                    OFFSET -1.1471 -3.4929 2.6334
                    CHANNELS 3 Zrotation Xrotation Yrotation
                    JOINT LeftFinger02
                    {
                      OFFSET -0.823 -2.3 1.6571
                      CHANNELS 3 Zrotation Xrotation Yrotation
                      End Site
                      {
                        OFFSET -0.5822 -1.6914 1.1582
                      }
                    }
                  }
                }
              }
            }
          }
        }
        JOINT RightCollar
        {
          OFFSET -2.2603 21.606 7.4023
          CHANNELS 3 Zrotation Xrotation Yrotation
          JOINT RightShoulder
          {
            OFFSET -13.5187 -1.1334 -5.0155
            CHANNELS 3 Zrotation Xrotation Yrotation
            JOINT RightElbow
            {
              OFFSET 0.0994 -28.0499 -0.2431
              CHANNELS 3 Zrotation Xrotation Yrotation
              JOINT RightWrist
              {
                OFFSET -0.0679 -23.3996 -0.1402
                CHANNELS 3 Zrotation Xrotation Yrotation
                JOINT RightFinger1
                {
                  OFFSET -0.7932 -9.0691 2.5189
                  CHANNELS 3 Zrotation Xrotation Yrotation
                  JOINT RightFinger11
                  {
                    OFFSET 0.8272 -3.3923 0.5977
                    CHANNELS 3 Zrotation Xrotation Yrotation
                    JOINT RightFinger12
                    {
                      OFFSET 0.565 -2.3158 0.4082
                      CHANNELS 3 Zrotation Xrotation Yrotation
                      End Site
                      {
                        OFFSET 0.4919 -1.6479 0.2673
                      }
                    }
                  }
                }
                JOINT RightFinger2
                {
                  OFFSET -0.916 -9.2044 0.2193
                  CHANNELS 3 Zrotation Xrotation Yrotation
                  JOINT RightFinger21
                  {
                    OFFSET -0.0117 -4.1944 -0.0248
                    CHANNELS 3 Zrotation Xrotation Yrotation
                    JOINT RightFinger22
                    {
                      OFFSET -0.0071 -2.3249 -0.0142
                      CHANNELS 3 Zrotation Xrotation Yrotation
                      End Site
                      {
                        OFFSET 0.1475 -2.0882 0.0028
                      }
                    }
                  }
                }
                JOINT RightFinger3
                {
                  OFFSET -0.6113 -8.7231 -2.0637
                  CHANNELS 3 Zrotation Xrotation Yrotation
                  JOINT RightFinger31
                  {
                    OFFSET 0.1927 -3.8059 -0.2383
                    CHANNELS 3 Zrotation Xrotation Yrotation
                    JOINT RightFinger32
                    {
                      OFFSET 0.1091 -2.1688 -0.1362
                      CHANNELS 3 Zrotation Xrotation Yrotation
                      End Site
                      {
                        OFFSET 0.2358 -1.9176 -0.0906
                      }
                    }
                  }
                }
                JOINT RightFinger4
                {
                  OFFSET 0.6151 -8.0947 -3.564
                  CHANNELS 3 Zrotation Xrotation Yrotation
                  JOINT RightFinger41
                  {
                    OFFSET 0.4882 -2.341 -0.6462
                    CHANNELS 3 Zrotation Xrotation Yrotation
                    JOINT RightFinger42
                    {
                      OFFSET 0.3574 -1.7166 -0.4742
                      CHANNELS 3 Zrotation Xrotation Yrotation
                      End Site
                      {
                        OFFSET 0.4187 -1.5237 -0.3496
                      }
                    }
                  }
                }
                JOINT RightFinger0
                {
                  OFFSET 1.4199 -1.8761 1.4221
                  CHANNELS 3 Zrotation Xrotation Yrotation
                  JOINT RightFinger01
                  {
                    OFFSET 1.1472 -3.4929 2.6336
                    CHANNELS 3 Zrotation Xrotation Yrotation
                    JOINT RightFinger02
                    {
                      OFFSET 0.8229 -2.3 1.6571
                      CHANNELS 3 Zrotation Xrotation Yrotation
                      End Site
                      {
                        OFFSET 0.5822 -1.6914 1.1582
                      }
                    }
                  }
                }
              }
            }
          }
        }
      }
    }
  }
  JOINT RightHip
  {
    OFFSET -9.412 3.9771 -0.7758
    CHANNELS 3 Zrotation Xrotation Yrotation
    JOINT RightKnee
    {
      OFFSET -0.7531 -40.938 0
      CHANNELS 3 Zrotation Xrotation Yrotation
      JOINT RightAnkle
      {
        OFFSET 0 -40.1986 0
        CHANNELS 3 Zrotation Xrotation Yrotation
        JOINT RightToe
        {
          OFFSET 0 -4.4182 9.239
          CHANNELS 3 Zrotation Xrotation Yrotation
          End Site
          {
            OFFSET 0 0 6.1981
          }
        }
      }
    }
  }
  JOINT LeftHip
  {
    OFFSET 9.4119 3.9773 -0.7758
    CHANNELS 3 Zrotation Xrotation Yrotation
    JOINT LeftKnee
    {
      OFFSET 0.7532 -40.9383 0
      CHANNELS 3 Zrotation Xrotation Yrotation
      JOINT LeftAnkle
      {
        OFFSET 0 -40.1986 0
        CHANNELS 3 Zrotation Xrotation Yrotation
        JOINT LeftToe
        {
          OFFSET 0 -4.4182 9.239
          CHANNELS 3 Zrotation Xrotation Yrotation
          End Site
          {
            OFFSET 0 0 6.1981
          }
        }
      }
    }
  }
}
MOTION
Frames:	5
Frame Time:	0.0333333
-22.522 8.59437 41.0243 -1.23918e-014 4.5103e-015 -130 -2.9061 10.324 -2.52369 -5.47669 20.756 -4.61833 -5.4767 20.756 -4.61832 0.000101756 -0.000319601 8.75221e-005 1.09467 -22.3295 -7.45215 -33.7974 2.92215 -67.0209 81.3416 -10.6993 11.766 5.81964 -20.603 4.10433 -2.26876 -28.6157 2.9505 -1.59028e-015 -1.59028e-015 -3.97569e-016 2.67017e-006 -1.04694e-005 3.25012e-006 -1.59028e-015 -3.18055e-015 -3.97569e-016 -1.59028e-015 -1.59028e-015 -3.97569e-016 -0.0127934 0.0023141 9.45356e-005 -1.59028e-015 4.77083e-015 3.97569e-016 -1.59028e-015 -1.59028e-015 -3.97569e-016 -0.0160532 0.00300274 0.000860957 4.41391e-032 3.18055e-015 -7.95139e-016 -1.59028e-015 -1.59028e-015 -3.97569e-016 -0.0125401 0.00310402 0.00281548 1.10348e-032 -1.59028e-015 3.97569e-016 -1.59028e-015 -1.59028e-015 -3.97569e-016 2.67017e-006 -1.04694e-005 3.25012e-006 -1.59028e-015 -3.18055e-015 -3.97569e-016 49.6945 10.8397 33.3469 -60.2549 -0.701227 3.09514 34.8503 -71.8412 32.0326 17.2903 17.0765 -1.33425 3.09633e-006 -1.09339e-005 -7.2364e-006 1.11572e-006 -5.49598e-006 2.30453e-006 9.74372e-006 1.5204e-006 -9.4033e-007 3.09633e-006 -1.09339e-005 -7.2364e-006 0.0129479 0.00230101 -7.86904e-005 -1.46406e-006 -2.10999e-006 6.92793e-007 3.09633e-006 -1.09339e-005 -7.2364e-006 0.016316 0.00301694 -0.000862983 -2.92808e-006 -4.21913e-006 1.38553e-006 3.09633e-006 -1.09339e-005 -7.2364e-006 0.0146538 0.00369269 -0.0032693 -7.20336e-007 -5.01963e-006 2.22913e-006 3.09633e-006 -1.09339e-005 -7.2364e-006 1.11572e-006 -5.49598e-006 2.30453e-006 9.74372e-006 1.5204e-006 -9.4033e-007 -113.527 -24.9434 -97.4456 162.345 60.1379 -154.807 -3.07421 -9.93717 -36.5627 8.50036e-007 -3.79389e-007 -7.66422e-009 19.0469 -50.7562 14.6469 178.45 18.8658 168.044 -8.41561 2.79175 58.4358 3.18055e-015 -6.36111e-015 -0 
-22.522 8.59437 41.0243 -1.23918e-014 4.5103e-015 -130 -2.9061 10.324 -2.52369 -5.47669 20.756 -4.61833 -5.4767 20.756 -4.61832 0.000101756 -0.000319601 8.75221e-005 1.09979 -22.0291 -7.34858 -33.7974 2.92215 -67.0209 81.3416 -10.6994 11.766 5.30729 -21.6355 3.94548 -2.26873 -28.6157 2.95048 4.00762e-006 1.00451e-006 5.21915e-006 -1.59028e-015 -3.18055e-015 -3.97569e-016 -3.18055e-015 -4.77083e-015 -3.97569e-016 4.00762e-006 1.00451e-006 5.21915e-006 -0.0127729 0.00231633 8.10373e-005 1.59028e-015 -1.59028e-015 7.95139e-016 4.00762e-006 1.00451e-006 5.21915e-006 -0.0160066 0.00298327 0.000853084 1.59028e-015 -1.59028e-015 1.19271e-015 4.00762e-006 1.00451e-006 5.21915e-006 -0.0126097 0.00312242 0.00283314 3.18055e-015 1.59028e-015 -3.97569e-016 4.00762e-006 1.00451e-006 5.21915e-006 -1.59028e-015 -3.18055e-015 -3.97569e-016 -3.18055e-015 -4.77083e-015 -3.97569e-016 49.6945 10.8397 33.3469 -60.2562 -0.673594 3.15032 33.5003 -71.2637 30.742 17.2855 17.1616 -1.33103 6.36111e-015 5.56597e-015 -0 0 2.38542e-015 -0 0 0 -1.59028e-015 6.36111e-015 5.56597e-015 -0 0.0129642 0.00232168 -0.000101721 2.75869e-031 -9.93923e-015 1.59028e-015 6.36111e-015 5.56597e-015 -0 0.0163349 0.00303094 -0.000873928 -8.53007e-006 2.57889e-006 -9.36197e-006 6.36111e-015 5.56597e-015 -0 0.0145335 0.00366776 -0.00325355 -1.87591e-031 -6.75868e-015 -1.59028e-015 6.36111e-015 5.56597e-015 -0 0 2.38542e-015 -0 0 0 -1.59028e-015 -113.527 -24.9434 -97.4456 162.345 60.1379 -154.807 -3.07421 -9.93717 -36.5627 8.50036e-007 -3.79389e-007 -7.66422e-009 19.0469 -50.7562 14.6469 178.45 18.8658 168.044 -8.41561 2.79175 58.4358 3.18055e-015 -6.36111e-015 -0 
-22.522 8.59437 41.0243 -1.23918e-014 4.5103e-015 -130 -2.9061 10.324 -2.52369 -5.47669 20.756 -4.61833 -5.4767 20.756 -4.61832 0.000101756 -0.000319601 8.75221e-005 1.10431 -21.7287 -7.24521 -33.7974 2.92215 -67.0209 81.3417 -10.6993 11.766 4.78739 -22.6677 3.77529 -2.2687 -28.6157 2.95048 -5.92367e-006 1.20281e-006 4.06708e-006 -5.75027e-006 1.15724e-006 8.39585e-006 1.59028e-015 0 -3.97569e-016 -5.92367e-006 1.20281e-006 4.06708e-006 -0.012854 0.00233314 8.60365e-005 -1.98378e-006 2.25585e-006 1.00502e-005 -5.92367e-006 1.20281e-006 4.06708e-006 -0.0160373 0.00301352 0.00085087 -2.05247e-030 4.77083e-015 2.46493e-014 -5.92367e-006 1.20281e-006 4.06708e-006 -0.0126276 0.00315158 0.00282927 2.20695e-032 3.18055e-015 -3.97569e-016 -5.92367e-006 1.20281e-006 4.06708e-006 -5.75027e-006 1.15724e-006 8.39585e-006 1.59028e-015 0 -3.97569e-016 49.6945 10.8397 33.3469 -60.2575 -0.646217 3.20552 32.2283 -70.6766 29.5297 17.2806 17.2467 -1.32779 -2.183e-006 5.85631e-006 -9.08406e-007 3.18055e-015 -5.1684e-015 3.18055e-015 6.68916e-006 5.09557e-007 -8.89892e-006 -2.183e-006 5.85631e-006 -9.08406e-007 0.012928 0.00231527 -8.45956e-005 6.69883e-007 3.228e-006 -1.17253e-005 -2.183e-006 5.85631e-006 -9.08406e-007 0.0163199 0.00301868 -0.000870002 -3.18055e-015 -4.77083e-015 3.18055e-015 -2.183e-006 5.85631e-006 -9.08406e-007 0.0146248 0.00369175 -0.00327064 9.54166e-015 -6.75868e-015 -6.36111e-015 -2.183e-006 5.85631e-006 -9.08406e-007 3.18055e-015 -5.1684e-015 3.18055e-015 6.68916e-006 5.09557e-007 -8.89892e-006 -113.527 -24.9434 -97.4456 162.345 60.1379 -154.807 -3.07421 -9.93717 -36.5627 8.50036e-007 -3.79389e-007 -7.66422e-009 19.0469 -50.7562 14.6469 178.45 18.8658 168.044 -8.41561 2.79175 58.4358 3.18055e-015 -6.36111e-015 -0 
-22.522 8.59437 41.0243 -1.23918e-014 4.5103e-015 -130 -2.9061 10.324 -2.52369 -5.47669 20.756 -4.61833 -5.4767 20.756 -4.61832 0.000101756 -0.000319601 8.75221e-005 1.10823 -21.4282 -7.14208 -33.7974 2.92215 -67.0209 81.3416 -10.6993 11.766 4.25985 -23.6992 3.59341 -2.26864 -28.6157 2.95047 -3.18055e-015 0 -0 -1.95017e-006 7.24791e-006 -3.37544e-006 1.95017e-006 -7.24791e-006 3.37544e-006 -3.18055e-015 0 -0 -0.0128684 0.00233207 8.45526e-005 -3.18055e-015 3.18055e-015 -7.95139e-016 -3.18055e-015 0 -0 -0.0161005 0.00300672 0.000857027 -2.17657e-006 -1.09348e-005 -2.11533e-006 -3.18055e-015 0 -0 -0.0126241 0.00313323 0.00283149 -3.75743e-006 8.96282e-007 1.94031e-006 -3.18055e-015 0 -0 -1.95017e-006 7.24791e-006 -3.37544e-006 1.95017e-006 -7.24791e-006 3.37544e-006 49.6945 10.8397 33.3469 -60.2588 -0.617469 3.26068 31.0311 -70.0822 28.3923 17.2758 17.3318 -1.32457 -1.20631e-006 1.82947e-006 -1.48579e-006 6.64233e-006 2.84502e-006 -9.34205e-007 -4.36253e-006 1.97607e-006 7.66176e-006 -1.20631e-006 1.82947e-006 -1.48579e-006 0.0129504 0.0023257 -9.00239e-005 -3.44379e-006 -2.66302e-006 1.12582e-005 -1.20631e-006 1.82947e-006 -1.48579e-006 0.0163525 0.00303523 -0.000875275 -6.36111e-015 0 -1.59028e-015 -1.20631e-006 1.82947e-006 -1.48579e-006 0.0146023 0.00368947 -0.00326116 -1.11695e-006 4.85987e-006 -1.09973e-006 -1.20631e-006 1.82947e-006 -1.48579e-006 6.64233e-006 2.84502e-006 -9.34205e-007 -4.36253e-006 1.97607e-006 7.66176e-006 -113.527 -24.9434 -97.4456 162.345 60.1379 -154.807 -3.07421 -9.93717 -36.5627 8.50036e-007 -3.79389e-007 -7.66422e-009 19.0469 -50.7562 14.6469 178.45 18.8658 168.044 -8.41561 2.79175 58.4358 3.18055e-015 -6.36111e-015 -0 
-22.522 8.59437 41.0243 -1.23918e-014 4.5103e-015 -130 -2.9061 10.324 -2.52369 -5.47669 20.756 -4.61833 -5.4767 20.756 -4.61832 0.000101756 -0.000319601 8.75221e-005 1.11157 -21.1277 -7.03916 -33.7974 2.92215 -67.0209 81.3417 -10.6993 11.766 3.7239 -24.7298 3.39944 -2.26854 -28.6157 2.95051 3.18055e-015 -4.77083e-015 1.98785e-016 3.18055e-015 -4.77083e-015 5.96354e-016 3.18055e-015 -4.77083e-015 -0 3.18055e-015 -4.77083e-015 1.98785e-016 -0.0128771 0.00234115 8.29301e-005 1.10348e-032 1.59028e-015 -3.97569e-016 3.18055e-015 -4.77083e-015 1.98785e-016 -0.0160518 0.00300081 0.000850995 3.31043e-032 -3.18055e-015 5.96354e-016 3.18055e-015 -4.77083e-015 1.98785e-016 -0.0125564 0.00312875 0.0028096 0 3.18055e-015 -0 3.18055e-015 -4.77083e-015 1.98785e-016 3.18055e-015 -4.77083e-015 5.96354e-016 3.18055e-015 -4.77083e-015 -0 49.6945 10.8397 33.3469 -60.2601 -0.590594 3.3159 29.8985 -69.4784 27.3194 17.271 17.4168 -1.32123 4.34578e-006 -9.92855e-006 7.05833e-007 4.5949e-007 -7.28534e-007 2.42031e-006 1.82765e-006 -7.29066e-007 1.85284e-007 4.34578e-006 -9.92855e-006 7.05833e-007 0.0129801 0.0023194 -8.37244e-005 1.9918e-006 -1.95547e-006 5.79018e-007 4.34578e-006 -9.92855e-006 7.05833e-007 0.0163368 0.00303801 -0.000873202 2.48455e-006 -5.54192e-006 1.76004e-006 4.34578e-006 -9.92855e-006 7.05833e-007 0.0145559 0.00367753 -0.00325366 5.81104e-006 -4.63942e-006 1.34362e-006 4.34578e-006 -9.92855e-006 7.05833e-007 4.5949e-007 -7.28534e-007 2.42031e-006 1.82765e-006 -7.29066e-007 1.85284e-007 -113.527 -24.9434 -97.4456 162.345 60.1379 -154.807 -3.07421 -9.93717 -36.5627 8.50036e-007 -3.79389e-007 -7.66422e-009 19.0469 -50.7562 14.6469 178.45 18.8658 168.044 -8.41561 2.79175 58.4358 3.18055e-015 -6.36111e-015 -0 
